# ProBuilder 4.4.0
# https://unity3d.com/unity/features/worldbuilding/probuilder
# 10/19/2024 10:45:39 PM

mtllib ./Collider.mtl
o Collider

g Cube
v 0 -0.7340682 3.097595
v -1 -0.7340682 3.097595
v 0 -0.1215601 3.158234
v -1 -0.1215601 3.158234
v -1.559387 -0.8490916 0
v -1.583374 -0.8490916 -1
v -1.300903 0.308161 0.5570374
v -1.32489 0.2917209 -1.190338
v -1 -0.7500755 -3.095703
v 0 -0.7500755 -3.095703
v -1 -0.07185221 -3.095703
v 0 -0.07185221 -3.095703
v 0.682251 -0.8490916 -1
v 0.682251 -0.8490916 0
v 0.4003601 0.3860084 -1.190338
v 0.4003601 0.4024487 0.5570374
v 0 0.4900761 0.5570374
v -1 0.4900761 0.5570374
v 0 0.4736359 -1.190338
v -1 0.4736359 -1.190338
v 0 -0.8490916 -1
v -1 -0.8490916 -1
v 0 -0.8490916 0
v -1 -0.8490916 0
v -1.406708 -0.07185221 -3.095703
v -1.406708 -0.7500755 -3.095703
v 0.682251 -0.7500755 -3.095703
v 0.682251 -0.07185221 -3.095703
v 0 -0.8490916 1.209442
v -1 -0.8490916 1.209442
v 0.682251 0.02387047 1.209442
v 0.682251 -0.8490916 1.209442
v -1.5 -0.8490916 1.209442
v -1.5 0.02387047 1.209442
v -1 0.02387047 1.209442
v 0 0.02387047 1.209442
v 0.682251 -0.1215601 3.158234
v 0.682251 -0.7340682 3.097595
v -1.5 -0.7340682 3.097595
v -1.5 -0.1215601 3.158234

vt 0 -0.4253263
vt -1 -0.4253263
vt 0 0.190176
vt -1 0.190176
vt -0.03739398 -1.153622
vt -1.037682 -1.153622
vt 0.5256816 0.02929188
vt -1.221767 0.01692108
vt 1 -0.7500755
vt 0 -0.7500755
vt 1 -0.07185221
vt 0 -0.07185221
vt 1 -0.9796136
vt 0 -0.9796136
vt 1.190338 0.2872465
vt -0.5570374 0.3032746
vt 0 0.5616234
vt 1 0.5616234
vt 0 -1.18583
vt 1 -1.18583
vt 0 -1
vt -1 -1
vt 0 0
vt -1 0
vt -1 -0.9588131
vt 0 -0.9588131
vt -1 -3.056854
vt 0 -3.056854
vt -1.18996 -0.008275269
vt -0.9995487 -1.177993
vt -3.095302 -0.3810602
vt -3.095302 -1.042524
vt 1.007352 -0.9779211
vt 1.194617 0.2893969
vt 3.102931 -0.8763221
vt 3.102931 -0.2153407
vt 0 -1.014004
vt 1 -1.014004
vt 0 -2.995915
vt 1 -2.995915
vt 0 1.209442
vt -1 1.209442
vt -0.6349712 0.3032727
vt -0.1589171 -1.011824
vt -1.335091 -0.09453061
vt -1.335091 -0.9253041
vt -0.07647841 -1.137381
vt 0.4925657 0.04267318
vt 1.134421 -1.137381
vt 1.134421 -0.2812861
vt 1 0.1682808
vt 0 0.1682808
vt 1 0.9701409
vt 0 0.9701409
vt 0 1.155575
vt -1 1.155575
vt 0 3.047228
vt -1 3.047228
vt -1.209442 0.02387047
vt -1.209442 -0.8490916
vt -3.158234 -0.1215601
vt -3.097595 -0.7340682
vt 1.209442 -0.8490916
vt 1.209442 0.02387047
vt 3.097595 -0.7340682
vt 3.158234 -0.1215601
vt 1 1.204312
vt 0 1.204312
vt 1 3.158522
vt 0 3.158522
vt 1.406708 -2.995915
vt 1.32489 -1.064073
vt -1.5 1.209442
vt -1.559387 0
vt 0.6022176 -0.01348997
vt 0.8434156 0.7512342
vt 0.9538365 -0.01348997
vt 1.271298 0.6162778
vt -1.5 3.047228
vt -1.5 1.155575
vt -1.583374 -1
vt 0.6411354 -1.182895
vt 0.6331035 0.5645393
vt 1.013488 -1.182895
vt 0.9845271 0.5644431
vt -1.583374 -0.9588131
vt -1.406708 -3.056854
vt 1.406708 -0.7500755
vt 1.406708 -0.07185221
vt 1.5 1.204312
vt 1.5 3.158522
vt -1.5 0.190176
vt -1.5 -0.4253263
vt 0.1047832 0.5614137
vt 0.1012682 -1.186036
vt -0.3050543 0.5614137
vt -0.3085694 -1.186036
vt -0.682251 0.9701409
vt -0.4003601 0.2192278
vt 0.682251 0
vt 0.682251 1.209442
vt -0.682251 3.158522
vt -0.682251 1.204312
vt 0.682251 -1
vt 0.682251 -3.056854
vt 0.682251 -0.9588131
vt 0.1012683 -1.021734
vt -0.01536275 -3.000211
vt -0.3085692 -1.021734
vt -0.6818368 -2.960922
vt -0.682251 -0.07185221
vt -0.682251 -0.7500755
vt 0.682251 1.155575
vt 0.682251 3.047228
vt 0.682251 -0.4253263
vt 0.682251 0.190176

vn 0 -0.0985186 0.9951352
vn -0.9780259 0.2071596 0.02345973
vn -0.9764176 0.2149568 0.01737274
vn -0.9748093 0.2227541 0.01128576
vn 0 0 -1
vn 0.9749301 0.2225115 0
vn 0.9751451 0.2215603 -0.001037807
vn 0.9753601 0.2206092 -0.002075613
vn 0 0.9999557 -0.009408067
vn 0 -1 0
vn 0 -0.9988857 -0.0471946
vn -0.9752889 0.2209334 -0.0002779537
vn -0.9858773 0.1104667 -0.04213965
vn -0.9964657 0 -0.08400134
vn 0.9745203 0.2240493 0.01058571
vn 0.9818764 0.1120246 0.07846928
vn 0.9892325 0 0.1463529
vn 0 0.9613774 -0.2752334
vn 0.9254946 0.3071167 -0.2216734
vn 0.9627473 0.1535583 -0.1108367
vn 1 0 0
vn -0.9794977 0.1956297 0.04809625
vn -0.9679756 0.09781484 -0.121894
vn -0.9564536 0 -0.2918843
vn 0 0.8136142 0.5814051
vn 0 -0.9981496 0.0608058
vn -1 0 0
vn 0 0.9972271 0.0744191
vn -0.2417319 0.9124084 -0.2096153
vn -0.4834638 0.8634394 -0.1439973
vn -0.4413759 0.7300742 0.5217078
vn -0.220688 0.8234085 0.4605929
vn 0 0.9167428 0.3994779
vn -0.488539 0.8725035 -0.008208935
vn -0.5029515 0.8641342 -0.004579178
vn -0.5173639 0.855765 -0.0009494202
vn 0.2138011 0.976834 -0.009190528
vn 0.09658443 0.8480908 0.505039
vn 0.1931689 0.8825675 0.4286729
vn 0.2059094 0.9407762 -0.2693354
vn 0.1029547 0.9565486 -0.2514924
vn 0 0.9723209 -0.2336494

usemtl ProBuilderDefault
f 3/3/1 4/4/1 2/2/1 1/1/1
f 7/7/3 8/8/4 6/6/3 5/5/2
f 11/11/5 12/12/5 10/10/5 9/9/5
f 15/15/7 16/16/8 14/14/7 13/13/6
f 19/19/9 20/20/9 18/18/9 17/17/9
f 23/23/10 24/24/10 22/22/10 21/21/10
f 9/27/11 10/28/11 21/26/11 22/25/11
f 25/31/13 26/32/14 6/30/13 8/29/12
f 27/35/16 28/36/17 15/34/16 13/33/15
f 12/39/18 11/40/18 20/38/18 19/37/18
f 29/41/10 30/42/10 24/24/10 23/23/10
f 31/45/20 32/46/21 14/44/20 16/43/19
f 33/49/23 34/50/24 7/48/23 5/47/22
f 35/53/25 36/54/25 17/52/25 18/51/25
f 1/57/26 2/58/26 30/56/26 29/55/26
f 37/61/21 38/62/21 32/60/21 31/59/21
f 39/65/27 40/66/27 34/64/27 33/63/27
f 4/69/28 3/70/28 36/68/28 35/67/28
f 25/71/29 8/72/30 20/38/29 11/40/18
f 33/73/10 5/74/10 24/24/10 30/42/10
f 7/77/32 34/78/33 35/76/32 18/75/31
f 39/79/26 33/80/26 30/56/26 2/58/26
f 5/74/10 6/81/10 22/22/10 24/24/10
f 8/84/35 7/85/36 18/83/35 20/82/34
f 6/86/11 26/87/11 9/27/11 22/25/11
f 26/88/5 25/89/5 11/11/5 9/9/5
f 34/90/28 40/91/28 4/69/28 35/67/28
f 40/92/1 39/93/1 2/2/1 4/4/1
f 16/96/37 15/97/37 19/95/37 17/94/37
f 31/98/38 16/99/39 17/52/38 36/54/25
f 14/100/10 32/101/10 29/41/10 23/23/10
f 37/102/28 31/103/28 36/68/28 3/70/28
f 13/104/10 14/100/10 23/23/10 21/21/10
f 27/105/11 13/106/11 21/26/11 10/28/11
f 15/109/41 28/110/42 12/108/41 19/107/40
f 28/111/5 27/112/5 10/10/5 12/12/5
f 32/113/26 38/114/26 1/57/26 29/55/26
f 38/115/1 37/116/1 3/3/1 1/1/1

